<svg xmlns="http://www.w3.org/2000/svg" width="1024" height="1024" viewBox="0 0 1024 1024">
<g>
<path d="M 532.03 753.75 L 532.00 847.00 L 392.00 847.00 L 392.00 737.50 C392.00,677.28 392.36,628.00 392.80,628.00 C394.16,628.00 427.47,648.56 441.86,658.28 C464.39,673.49 478.21,685.28 487.22,696.97 C488.69,698.88 490.11,700.22 490.38,699.95 C491.24,699.09 485.32,685.56 480.96,678.43 C474.31,667.56 468.42,660.29 457.50,649.50 C444.33,636.47 432.10,627.07 401.00,606.02 C386.98,596.53 371.67,585.80 367.00,582.18 C355.70,573.43 342.84,560.19 335.09,549.34 C326.13,536.78 313.20,509.47 315.24,507.43 C315.55,507.12 319.78,509.10 324.65,511.82 C329.52,514.54 348.80,525.00 367.50,535.05 C423.76,565.29 444.40,578.08 464.28,595.04 C474.69,603.92 480.63,610.26 487.53,619.90 C489.66,622.87 491.56,624.83 491.74,624.27 C491.93,623.70 490.33,619.15 488.17,614.16 C477.42,589.22 453.53,563.25 422.00,542.24 C407.99,532.90 396.05,526.15 361.50,508.06 C345.55,499.70 327.46,489.51 321.31,485.42 C297.75,469.76 279.68,448.76 265.11,420.11 C258.74,407.58 253.66,396.01 254.26,395.41 C255.28,394.39 373.77,451.86 411.00,471.43 C452.31,493.15 471.84,505.90 487.35,521.25 C492.76,526.61 497.36,531.00 497.55,531.00 C498.23,531.00 495.23,523.39 492.20,517.45 C481.26,495.93 458.86,475.07 424.27,454.19 C407.81,444.26 357.21,418.83 322.50,403.05 C289.71,388.13 275.25,380.91 265.50,374.55 C239.98,357.91 221.44,333.25 208.68,298.97 C204.73,288.35 201.44,276.22 202.29,275.37 C202.60,275.07 209.11,278.22 216.77,282.37 C242.40,296.29 271.93,309.53 347.56,341.02 C403.46,364.30 418.42,370.80 437.14,379.90 C459.27,390.66 477.70,402.81 487.96,413.40 C490.41,415.93 492.75,418.00 493.15,418.00 C494.16,418.00 490.88,408.67 487.51,401.98 C477.08,381.20 461.98,368.95 423.50,350.00 C398.76,337.82 388.83,333.42 323.08,305.53 C246.41,273.01 230.67,263.98 206.00,238.36 C181.80,213.24 169.78,186.68 167.49,153.29 C166.72,142.10 167.64,129.00 169.18,129.00 C169.72,129.00 172.04,130.52 174.33,132.38 C187.45,143.03 217.48,160.39 243.07,172.11 C278.96,188.55 314.29,201.29 399.50,228.53 C433.11,239.27 446.52,244.24 461.50,251.49 C497.04,268.69 519.42,294.39 528.76,328.72 L 531.42 338.50 L 531.77 391.25 C531.96,420.26 532.50,444.00 532.97,444.00 C533.69,444.00 683.39,293.30 721.96,253.75 L 734.40 241.00 L 876.24 241.00 L 848.32 269.75 C757.18,363.60 719.34,404.02 615.33,518.62 L 586.18 550.75 L 618.34 581.58 C636.03,598.54 703.15,665.08 767.50,729.46 L 884.50 846.50 L 715.19 847.01 L 703.30 834.76 C696.76,828.02 678.15,808.79 661.95,792.03 C645.75,775.27 609.90,738.82 582.28,711.03 L 532.06 660.50 Z" fill="#0055A4"></path>
</g>
</svg>